<svg width="318" height="29" viewBox="0 0 318 29" fill="none" xmlns="http://www.w3.org/2000/svg">
<path d="M23.8419 11.2601C23.8419 10.9893 23.7343 10.7297 23.5429 10.5383C23.3515 10.3469 23.0919 10.2393 22.8212 10.2393C22.5505 10.2393 22.2908 10.3469 22.0994 10.5383C21.908 10.7297 21.8005 10.9893 21.8005 11.2601H23.8419ZM4.78874 11.2601C4.78874 10.9893 4.6812 10.7297 4.48979 10.5383C4.29837 10.3469 4.03875 10.2393 3.76804 10.2393C3.49733 10.2393 3.23771 10.3469 3.04629 10.5383C2.85487 10.7297 2.74734 10.9893 2.74734 11.2601H4.78874ZM24.8217 14.7032C24.9152 14.8035 25.0279 14.8839 25.1531 14.9397C25.2783 14.9955 25.4134 15.0255 25.5505 15.0279C25.6875 15.0304 25.8237 15.0051 25.9508 14.9538C26.0779 14.9025 26.1933 14.8261 26.2902 14.7291C26.3872 14.6322 26.4636 14.5168 26.5149 14.3897C26.5663 14.2626 26.5915 14.1264 26.589 13.9894C26.5866 13.8523 26.5566 13.7172 26.5008 13.592C26.4451 13.4668 26.3646 13.3541 26.2643 13.2606L24.8217 14.7032ZM13.2946 1.73349L14.0159 1.01219C13.8245 0.821048 13.5651 0.713684 13.2946 0.713684C13.0241 0.713684 12.7647 0.821048 12.5733 1.01219L13.2946 1.73349ZM0.324867 13.2606C0.224584 13.3541 0.14415 13.4668 0.0883622 13.592C0.0325747 13.7172 0.00257694 13.8523 0.00015885 13.9894C-0.00225924 14.1264 0.0229516 14.2626 0.0742876 14.3897C0.125624 14.5168 0.202033 14.6322 0.298957 14.7291C0.395881 14.8261 0.511335 14.9025 0.638431 14.9538C0.765526 15.0051 0.901659 15.0304 1.03871 15.0279C1.17576 15.0255 1.31092 14.9955 1.43612 14.9397C1.56133 14.8839 1.67402 14.8035 1.76746 14.7032L0.324867 13.2606ZM6.48991 27.2511H20.0993V25.2097H6.48991V27.2511ZM23.8419 23.5085V11.2601H21.8005V23.5085H23.8419ZM4.78874 23.5085V11.2601H2.74734V23.5085H4.78874ZM26.2643 13.2606L14.0159 1.01219L12.5733 2.45479L24.8217 14.7032L26.2643 13.2606ZM12.5733 1.01219L0.324867 13.2606L1.76746 14.7032L14.0159 2.45479L12.5733 1.01219ZM20.0993 27.2511C21.0919 27.2511 22.0438 26.8568 22.7457 26.1549C23.4476 25.453 23.8419 24.5011 23.8419 23.5085H21.8005C21.8005 24.4475 21.0383 25.2097 20.0993 25.2097V27.2511ZM6.48991 25.2097C5.55087 25.2097 4.78874 24.4475 4.78874 23.5085H2.74734C2.74734 24.5011 3.14164 25.453 3.84351 26.1549C4.54538 26.8568 5.49732 27.2511 6.48991 27.2511V25.2097Z" fill="#7F7F7F"/>
<path d="M295.225 22.1479C295.225 20.7041 295.799 19.3194 296.819 18.2985C297.84 17.2776 299.225 16.7041 300.669 16.7041H311.556C313 16.7041 314.385 17.2776 315.406 18.2985C316.426 19.3194 317 20.7041 317 22.1479C317 22.8697 316.713 23.5621 316.203 24.0725C315.692 24.583 315 24.8697 314.278 24.8697H297.947C297.225 24.8697 296.533 24.583 296.022 24.0725C295.512 23.5621 295.225 22.8697 295.225 22.1479Z" stroke="#7F7F7F" stroke-width="2" stroke-linejoin="round"/>
<path d="M306.112 11.2601C308.367 11.2601 310.195 9.43217 310.195 7.1773C310.195 4.92242 308.367 3.09448 306.112 3.09448C303.858 3.09448 302.03 4.92242 302.03 7.1773C302.03 9.43217 303.858 11.2601 306.112 11.2601Z" stroke="#7F7F7F" stroke-width="2"/>
<path fill-rule="evenodd" clip-rule="evenodd" d="M231.678 3.73869C232.041 1.95586 233.628 0.694275 235.445 0.694275H239.892C241.709 0.694275 243.295 1.95586 243.659 3.73869C243.7 3.93501 243.805 4.11209 243.958 4.24145C244.111 4.3708 244.303 4.4449 244.503 4.45182H244.548C246.457 4.5362 247.925 4.77028 249.149 5.5746C249.921 6.08087 250.585 6.73139 251.102 7.49216C251.746 8.43665 252.029 9.52268 252.165 10.8346C252.299 12.118 252.299 13.7253 252.299 15.7612V15.8769C252.299 17.9129 252.299 19.5215 252.165 20.8035C252.029 22.1154 251.746 23.2015 251.102 24.1473C250.584 24.9085 249.92 25.5601 249.149 26.0649C248.193 26.6923 247.094 26.9699 245.763 27.1019C244.46 27.2326 242.825 27.2326 240.748 27.2326H234.589C232.512 27.2326 230.877 27.2326 229.574 27.1019C228.243 26.9699 227.144 26.6936 226.188 26.0649C225.417 25.5597 224.753 24.9076 224.235 24.146C223.591 23.2015 223.308 22.1154 223.172 20.8035C223.038 19.5215 223.038 17.9129 223.038 15.8769V15.7612C223.038 13.7253 223.038 12.118 223.172 10.8346C223.308 9.52268 223.591 8.43665 224.235 7.49216C224.753 6.73047 225.417 6.07841 226.188 5.57324C227.412 4.77028 228.88 4.5362 230.789 4.45319L230.812 4.45182H230.834C231.034 4.4449 231.226 4.3708 231.379 4.24145C231.532 4.11209 231.637 3.93501 231.678 3.73869ZM235.445 2.73568C234.574 2.73568 233.843 3.33858 233.678 4.14561C233.413 5.45211 232.253 6.48098 230.858 6.49323C229.024 6.57489 228.041 6.79944 227.306 7.28121C226.76 7.63944 226.29 8.10137 225.922 8.64079C225.547 9.19197 225.321 9.8983 225.201 11.0456C225.081 12.2105 225.08 13.713 225.08 15.8197C225.08 17.9265 225.08 19.4276 225.202 20.5925C225.321 21.7398 225.547 22.4461 225.924 22.9987C226.288 23.5349 226.758 23.9976 227.308 24.3583C227.875 24.7298 228.602 24.9544 229.776 25.0714C230.966 25.1898 232.498 25.1912 234.644 25.1912H240.692C242.837 25.1912 244.37 25.1912 245.561 25.0714C246.735 24.9544 247.462 24.7312 248.029 24.3583C248.579 23.9976 249.05 23.5349 249.415 22.9973C249.79 22.4461 250.016 21.7398 250.136 20.5925C250.256 19.4276 250.257 17.9251 250.257 15.8197C250.257 13.713 250.257 12.2105 250.135 11.0456C250.016 9.8983 249.79 9.19197 249.413 8.64079C249.046 8.10065 248.576 7.63821 248.029 7.27985C247.297 6.79944 246.315 6.57489 244.477 6.49323C243.084 6.47962 241.924 5.45347 241.659 4.14561C241.572 3.74314 241.348 3.38307 241.026 3.12619C240.705 2.86931 240.304 2.73138 239.892 2.73568H235.445ZM237.668 12.2622C236.856 12.2622 236.077 12.5849 235.503 13.1591C234.929 13.7334 234.606 14.5122 234.606 15.3244C234.606 16.1365 234.929 16.9153 235.503 17.4896C236.077 18.0639 236.856 18.3865 237.668 18.3865C238.481 18.3865 239.259 18.0639 239.834 17.4896C240.408 16.9153 240.731 16.1365 240.731 15.3244C240.731 14.5122 240.408 13.7334 239.834 13.1591C239.259 12.5849 238.481 12.2622 237.668 12.2622ZM232.565 15.3244C232.565 13.9708 233.103 12.6727 234.06 11.7156C235.017 10.7585 236.315 10.2208 237.668 10.2208C239.022 10.2208 240.32 10.7585 241.277 11.7156C242.234 12.6727 242.772 13.9708 242.772 15.3244C242.772 16.6779 242.234 17.976 241.277 18.9331C240.32 19.8902 239.022 20.4279 237.668 20.4279C236.315 20.4279 235.017 19.8902 234.06 18.9331C233.103 17.976 232.565 16.6779 232.565 15.3244ZM244.813 11.2415C244.813 10.9708 244.921 10.7112 245.112 10.5198C245.304 10.3284 245.563 10.2208 245.834 10.2208H247.195C247.466 10.2208 247.725 10.3284 247.917 10.5198C248.108 10.7112 248.216 10.9708 248.216 11.2415C248.216 11.5122 248.108 11.7719 247.917 11.9633C247.725 12.1547 247.466 12.2622 247.195 12.2622H245.834C245.563 12.2622 245.304 12.1547 245.112 11.9633C244.921 11.7719 244.813 11.5122 244.813 11.2415Z" fill="#7F7F7F"/>
<path d="M92.0017 12.2622V14.3037C92.0017 20.7191 92.0017 23.9268 90.0079 25.9193C88.0169 27.913 84.8078 27.913 78.3923 27.913C71.9769 27.913 68.7691 27.913 66.7754 25.9193C64.7829 23.9282 64.7829 20.7191 64.7829 14.3037C64.7829 7.88819 64.7829 4.68046 66.7754 2.68669C68.7705 0.694275 71.9769 0.694275 78.3923 0.694275H80.4337" stroke="#829DFF" stroke-width="1.38821" stroke-linecap="round"/>
<path d="M71.5877 17.0247L74.0333 14.0906C75.0023 12.927 75.4868 12.3458 76.1237 12.3458C76.762 12.3458 77.2465 12.927 78.2155 14.0906L78.5693 14.5152C79.5383 15.6788 80.0228 16.2599 80.6611 16.2599C81.298 16.2599 81.7825 15.6788 82.7515 14.5152L85.1971 11.581" stroke="#829DFF" stroke-width="1.38821" stroke-linecap="round"/>
<path d="M87.919 8.85972C90.1739 8.85972 92.0018 7.03178 92.0018 4.77691C92.0018 2.52203 90.1739 0.694092 87.919 0.694092C85.6641 0.694092 83.8362 2.52203 83.8362 4.77691C83.8362 7.03178 85.6641 8.85972 87.919 8.85972Z" stroke="#829DFF" stroke-width="1.38821"/>
</svg>
