<svg width="16" height="5" viewBox="0 0 16 5" fill="none" xmlns="http://www.w3.org/2000/svg">
<path d="M8.00044 2.38381C10.3219 2.38391 12.5546 3.27516 14.2371 4.87334C14.3638 4.99673 14.5663 4.99517 14.691 4.86986L15.9021 3.64864C15.9653 3.58508 16.0005 3.49898 16 3.4094C15.9995 3.31982 15.9632 3.23414 15.8993 3.17132C11.4834 -1.05711 4.51678 -1.05711 0.100859 3.17132C0.0368916 3.23409 0.000597157 3.31974 7.30289e-06 3.40933C-0.000582551 3.49891 0.0345808 3.58503 0.0977163 3.64864L1.30914 4.86986C1.43384 4.99536 1.6365 4.99692 1.76312 4.87334C3.44579 3.27505 5.67875 2.3838 8.00044 2.38381Z" fill="black"/>
</svg>
