<svg width="10" height="4" viewBox="0 0 10 4" fill="none" xmlns="http://www.w3.org/2000/svg">
<path d="M4.99881 2.28869C6.22254 2.28862 7.4026 2.74309 8.30969 3.56379C8.43238 3.68026 8.62565 3.67774 8.74525 3.5581L9.90583 2.38644C9.96695 2.32499 10.0009 2.24162 9.99998 2.15498C9.9991 2.06835 9.9635 1.98568 9.90114 1.92548C7.13886 -0.641827 2.86111 -0.641827 0.0988288 1.92548C0.0364329 1.98568 0.00083329 2.06839 1.44426e-05 2.15505C-0.000804405 2.24171 0.0332261 2.32508 0.0944733 2.38644L1.25472 3.5581C1.37432 3.67774 1.56759 3.68026 1.69028 3.56379C2.59677 2.74363 3.77589 2.2892 4.99881 2.28869Z" fill="black"/>
</svg>
